<svg xmlns="http://www.w3.org/2000/svg" version="1.1" xmlns:xlink="http://www.w3.org/1999/xlink" xmlns:svgjs="http://svgjs.dev/svgjs" width="1500" height="1500" viewBox="0 0 1500 1500"><g transform="matrix(1,0,0,1,-0.21332335329316265,-0.21332335329350371)"><svg viewBox="0 0 334 334" data-background-color="#ffffff" preserveAspectRatio="xMidYMid meet" height="1500" width="1500" xmlns="http://www.w3.org/2000/svg" xmlns:xlink="http://www.w3.org/1999/xlink"><g id="tight-bounds" transform="matrix(1,0,0,1,0.04749999999998522,0.04750000000001364)"><svg viewBox="0 0 333.90454557049503 333.90454557049503" height="333.90454557049503" width="333.90454557049503"><g><svg></svg></g><g><svg viewBox="0 0 333.90454557049503 333.90454557049503" height="333.90454557049503" width="333.90454557049503"><g><path d="M0 166.952c0-92.205 74.747-166.952 166.952-166.952 92.205 0 166.952 74.747 166.953 166.952 0 92.205-74.747 166.952-166.953 166.953-92.205 0-166.952-74.747-166.952-166.953zM166.952 321.499c85.354 0 154.547-69.193 154.547-154.547 0-85.354-69.193-154.547-154.547-154.547-85.354 0-154.547 69.193-154.547 154.547 0 85.354 69.193 154.547 154.547 154.547z" data-fill-palette-color="tertiary" fill="#556970" stroke="transparent"></path><ellipse rx="160.27418187383762" ry="160.27418187383762" cx="166.95227278524752" cy="166.95227278524752" fill="#556970" stroke="transparent" stroke-width="0" fill-opacity="1" data-fill-palette-color="tertiary"></ellipse></g><g transform="matrix(1,0,0,1,121.09864099317318,71.17305217166896)"><svg viewBox="0 0 91.70726358414868 191.55844122715712" height="191.55844122715712" width="91.70726358414868"><g><svg viewBox="0 0 91.70726358414868 191.55844122715712" height="191.55844122715712" width="91.70726358414868"><g><svg viewBox="0 0 127.70562748477143 266.75194505691456" height="191.55844122715712" width="91.70726358414868"><g transform="matrix(1,0,0,1,0,75.19350382975747)"><svg viewBox="0 0 127.70562748477143 191.55844122715712" height="191.55844122715712" width="127.70562748477143"><g id="textblocktransform"><svg viewBox="0 0 127.70562748477143 191.55844122715712" height="191.55844122715712" width="127.70562748477143" id="textblock"><g><svg viewBox="0 0 127.70562748477143 191.55844122715712" height="191.55844122715712" width="127.70562748477143"><g transform="matrix(1,0,0,1,0,0)"><svg width="127.70562748477143" viewBox="1.25 -29.55 19.7 29.55" height="191.55844122715712" data-palette-color="#ffffff"><path d="M9.55 0L1.25 0 1.25-29.55 12.85-29.55Q16.15-29.55 17.63-28.15 19.1-26.75 19.1-24.5L19.1-24.5 19.1-20Q19.1-17.85 18.23-16.15 17.35-14.45 14.95-13.9L14.95-13.9Q16.15-13.8 16.85-13.15 17.55-12.5 18.2-10.75L18.2-10.75 20.95 0 12.1 0 9.55-13.1 9.55 0ZM10.75-14.6L10.75-14.5 11.85-14.5Q13.4-14.5 14.23-15.6 15.05-16.7 15.38-18.4 15.7-20.1 15.7-21.9L15.7-21.9Q15.7-25.1 14.8-26.33 13.9-27.55 11.55-27.45L11.55-27.45 9.95-27.4 9.95-27.3 11.55-27.25Q13.15-27.2 13.93-26.7 14.7-26.2 14.93-25.05 15.15-23.9 15.15-21.9L15.15-21.9Q15.15-20.45 14.95-18.78 14.75-17.1 14.05-15.93 13.35-14.75 11.85-14.65L11.85-14.65 10.75-14.6ZM5.1-15L5.3-2.35 5.5-2.35 5.75-15 5.55-27.35 5.35-27.35 5.1-15ZM9.55-25.35L9.55-16 10.15-16Q10.85-16 11.03-17.13 11.2-18.25 11.2-20.4L11.2-20.4Q11.2-21.8 11.18-22.75 11.15-23.7 11.1-24.25L11.1-24.25Q11.05-25.35 10.3-25.35L10.3-25.35 9.55-25.35ZM15.75-2.35L15.75-2.35 16.15-2.35Q15.95-3.1 15.6-4.65 15.25-6.2 14.8-7.98 14.35-9.75 13.75-11.2 13.15-12.65 12.35-13.25L12.35-13.25 12.3-13.25Q13.05-12.65 13.55-11.33 14.05-10 14.4-8.38 14.75-6.75 15.08-5.15 15.4-3.55 15.75-2.35Z" opacity="1" transform="matrix(1,0,0,1,0,0)" fill="#ffffff" class="wordmark-text-0" data-fill-palette-color="quaternary" id="text-0"></path></svg></g></svg></g></svg></g></svg></g><g transform="matrix(1,0,0,1,24.391774849591343,0)"><svg viewBox="0 0 78.92207778558874 29.971153258615125" height="29.971153258615125" width="78.92207778558874"><g><svg xmlns="http://www.w3.org/2000/svg" xmlns:xlink="http://www.w3.org/1999/xlink" version="1.1" x="0" y="0" viewBox="21.403 38.89914167333608 57.49986449474172 21.835933612941318" enable-background="new 0 0 100 100" xml:space="preserve" height="29.971153258615125" width="78.92207778558874" class="icon-icon-0" data-fill-palette-color="quaternary" id="icon-0"><g fill="#ffffff" data-fill-palette-color="quaternary"><g fill="#ffffff" data-fill-palette-color="quaternary"><path d="M59.492 60.735C52.704 60.735 45.232 58.128 37.195 52.944A0.999 0.999 0 1 1 38.279 51.264C48.113 57.606 56.978 59.93 64.627 58.161 71.533 56.567 75.436 51.982 76.641 50.344 71.29 44.332 65.243 41.16 58.658 40.915 46.088 40.447 35.552 50.87 35.448 50.975A1 1 0 0 1 34.739 51.27H22.403A1 1 0 0 1 22.403 49.27H34.33C36.222 47.469 46.332 38.458 58.717 38.916 66.095 39.186 72.806 42.787 78.662 49.619A1 1 0 0 1 78.76 50.785C78.585 51.076 74.372 57.945 65.118 60.1A24.7 24.7 0 0 1 59.492 60.735" fill="#ffffff" data-fill-palette-color="quaternary"></path></g><path d="M58.324 42.257C54.796 42.257 51.893 44.973 51.587 48.423H53.617C53.917 46.08 55.901 44.257 58.324 44.257A4.774 4.774 0 0 1 63.092 49.025 4.774 4.774 0 0 1 58.324 53.793C56.569 53.793 55.05 52.829 54.222 51.413H52C52.969 53.968 55.434 55.793 58.324 55.793A6.776 6.776 0 0 0 65.092 49.025 6.776 6.776 0 0 0 58.324 42.257" fill="#ffffff" data-fill-palette-color="quaternary"></path></g></svg></g></svg></g><g></g></svg></g></svg></g></svg></g></svg></g><defs></defs></svg><rect width="333.90454557049503" height="333.90454557049503" fill="none" stroke="none" visibility="hidden"></rect></g></svg></g></svg>